<?xml version="1.0" standalone="no"?>
<!DOCTYPE svg PUBLIC "-//W3C//DTD SVG 20010904//EN"
 "http://www.w3.org/TR/2001/REC-SVG-20010904/DTD/svg10.dtd">
<svg version="1.0" xmlns="http://www.w3.org/2000/svg"
 width="200.000000pt" height="200.000000pt" viewBox="0 0 200.000000 200.000000"
 preserveAspectRatio="xMidYMid meet">
<metadata>
Created by potrace 1.11, written by Peter Selinger 2001-2013
</metadata>
<g transform="translate(0.000000,200.000000) scale(0.100000,-0.100000)"
fill="#000000" stroke="none">
<path d="M6 1984 c-3 -9 -6 -78 -6 -154 l0 -139 35 -38 c19 -21 35 -41 35 -45
0 -4 17 -19 38 -32 66 -43 180 -45 277 -5 19 8 19 8 -2 15 -18 5 -21 10 -12
25 5 10 20 19 33 19 13 0 26 7 30 15 3 8 18 15 33 15 23 0 32 8 51 47 15 32
19 50 12 57 -15 15 -12 23 10 29 38 10 21 120 -26 180 l-22 27 -240 0 c-209 0
-241 -2 -246 -16z m442 -152 c2 -7 -2 -10 -12 -6 -9 3 -16 11 -16 16 0 13 23
5 28 -10z m-19 -37 c17 -10 13 -72 -5 -89 -20 -21 -37 -11 -22 13 15 25 3 65
-24 79 -21 11 -21 11 9 8 17 -2 37 -7 42 -11z m-209 -32 c-1 -18 -18 -35 -24
-24 -4 6 -4 16 -1 21 7 12 25 13 25 3z m270 -18 c0 -21 -17 -27 -24 -9 -10 25
-7 34 9 28 8 -4 15 -12 15 -19z m-70 -69 c0 -9 -40 -13 -46 -5 -3 5 6 9 20 9
14 0 26 -2 26 -4z"/>
<path d="M556 1990 c25 -25 184 -34 169 -10 -3 5 3 11 12 13 10 3 -29 5 -86 6
-72 1 -102 -2 -95 -9z"/>
<path d="M1010 1965 c11 -20 20 -41 20 -48 0 -17 96 -108 149 -141 32 -21 55
-27 102 -27 42 -1 64 3 70 12 7 11 11 11 17 2 6 -9 18 -9 51 3 101 35 124 60
164 187 l16 47 -25 0 c-21 0 -28 -9 -26 -32 2 -10 -21 -25 -51 -32 -19 -4 -26
-3 -22 4 3 5 12 10 18 10 7 0 20 12 30 25 l18 25 -275 0 -276 0 20 -35z m366
-82 c-10 -10 -19 5 -10 18 6 11 8 11 12 0 2 -7 1 -15 -2 -18z m106 -15 c-17
-8 -26 -8 -34 0 -9 9 -4 12 23 11 32 0 33 -1 11 -11z"/>
<path d="M1652 1988 c-39 -50 -49 -105 -44 -233 2 -36 5 -46 12 -35 6 9 10 10
10 3 0 -7 25 -38 55 -69 30 -32 55 -65 55 -75 0 -9 7 -22 15 -29 8 -7 15 -22
15 -34 0 -22 37 -53 48 -40 4 4 1 9 -5 11 -9 3 -10 10 -3 24 12 21 32 26 29 7
-3 -24 1 -38 10 -38 6 0 9 12 8 27 -2 26 0 27 44 24 26 -1 50 2 54 8 3 6 15
11 26 11 18 0 19 9 19 225 l0 225 -169 0 c-123 0 -171 -3 -179 -12z m298 -328
c23 -23 19 -40 -9 -40 -18 0 -35 42 -23 55 8 8 10 7 32 -15z"/>
<path d="M717 1906 c-58 -31 -126 -105 -127 -136 0 -9 -4 -20 -9 -25 -17 -19
-40 -116 -35 -148 14 -73 34 -111 99 -186 63 -73 72 -80 120 -89 54 -11 95 -7
95 10 0 5 -5 6 -10 3 -11 -7 -26 22 -17 31 10 10 47 -7 47 -21 0 -10 11 -14
35 -13 22 1 35 6 35 15 0 7 5 13 10 13 6 0 10 -4 10 -9 0 -5 9 -7 21 -4 15 4
17 8 8 14 -20 12 16 48 42 42 22 -6 49 13 49 34 0 8 8 27 19 41 28 41 44 122
36 189 -9 74 -21 95 -86 165 -106 111 -225 137 -342 74z m353 -256 c0 -5 -2
-10 -4 -10 -3 0 -8 5 -11 10 -3 6 -1 10 4 10 6 0 11 -4 11 -10z m10 -60 c0 -5
-5 -10 -11 -10 -5 0 -8 -4 -4 -9 3 -5 -8 -19 -25 -31 -37 -27 -38 -19 -2 26
27 34 42 43 42 24z m-115 -190 c4 -6 -5 -10 -20 -10 -15 0 -24 4 -20 10 3 6
12 10 20 10 8 0 17 -4 20 -10z"/>
<path d="M1399 1719 c-79 -7 -149 -29 -149 -47 0 -4 -10 -12 -22 -17 -38 -17
-88 -168 -88 -266 0 -36 7 -63 26 -95 14 -24 29 -44 33 -44 4 0 15 -13 24 -30
10 -16 37 -43 60 -59 37 -25 53 -29 112 -30 37 0 73 2 78 6 6 3 35 7 66 7 66
2 105 23 142 74 23 32 43 85 44 117 0 6 6 16 13 23 6 7 12 33 12 57 0 24 5 47
10 50 8 5 7 11 -1 21 -6 8 -8 14 -4 14 4 0 3 6 -2 13 -6 6 -13 24 -17 40 -3
15 -11 27 -16 27 -6 0 -10 9 -10 21 0 15 -5 19 -16 15 -9 -3 -12 -2 -9 5 4 6
-2 13 -14 16 -11 3 -18 9 -15 14 3 5 -2 9 -10 9 -10 0 -13 6 -9 17 5 13 2 15
-11 10 -10 -4 -19 -1 -22 8 -4 9 -19 15 -39 15 -19 0 -44 4 -57 8 -13 4 -62 5
-109 1z m301 -342 c0 -7 -7 -22 -15 -34 -12 -18 -20 -20 -51 -13 -19 5 -39 11
-42 15 -4 4 7 4 25 1 26 -6 34 -3 50 18 20 28 33 33 33 13z m-192 -59 c-6 -18
-28 -21 -28 -4 0 9 7 16 16 16 9 0 14 -5 12 -12z m66 -33 c3 -8 14 -15 24 -15
15 0 18 -5 14 -25 -4 -21 -10 -25 -41 -25 -29 1 -33 3 -18 11 27 16 22 41 -8
33 -19 -5 -25 -2 -25 11 0 9 5 13 10 10 6 -3 10 -1 10 4 0 17 27 13 34 -4z
m-148 -94 c0 -15 -3 -17 -13 -9 -7 6 -13 14 -13 19 0 5 6 9 13 9 7 0 13 -9 13
-19z m179 -2 c20 0 20 0 0 -9 -33 -14 -45 -11 -45 12 0 17 3 19 12 10 7 -7 21
-12 33 -13z m-122 -3 c7 -18 -1 -26 -25 -26 -16 0 -17 3 -8 20 13 23 26 26 33
6z"/>
<path d="M1170 1680 c0 -13 7 -20 20 -20 11 0 20 3 20 8 0 4 -9 13 -20 20 -18
11 -20 10 -20 -8z"/>
<path d="M0 1476 c0 -86 3 -156 7 -156 3 0 15 8 26 18 19 16 20 16 8 -5 -13
-26 -14 -36 -2 -29 4 3 6 -7 3 -22 -5 -22 -7 -23 -10 -7 -13 64 -37 8 -30 -70
l3 -40 28 37 c31 40 67 158 67 219 0 51 -23 111 -65 165 l-35 47 0 -157z"/>
<path d="M325 1496 c-91 -14 -108 -21 -151 -68 -46 -49 -84 -170 -84 -268 0
-51 4 -63 30 -92 17 -18 30 -38 30 -45 0 -7 9 -17 20 -23 11 -6 20 -17 20 -24
0 -15 35 -48 70 -67 40 -21 176 -23 224 -3 23 9 54 18 70 20 38 5 63 28 71 65
4 16 12 29 19 29 6 0 12 8 13 18 0 9 8 43 17 74 28 101 18 193 -27 244 -7 8
-28 34 -47 58 -39 48 -100 84 -158 90 -20 2 -73 -1 -117 -8z m290 -388 c-3
-17 -8 -34 -12 -37 -5 -3 -13 -16 -20 -28 -10 -17 -10 -23 0 -27 7 -4 -7 -4
-30 -1 -26 3 -43 1 -43 -5 0 -5 12 -10 27 -10 l27 0 -22 -16 c-13 -9 -29 -17
-35 -18 -38 -7 -58 -19 -53 -32 6 -17 7 -17 -33 -3 -37 13 -45 54 -11 56 14 1
20 -4 20 -20 1 -20 1 -20 11 -4 7 12 17 16 32 12 12 -4 18 -3 12 2 -23 19 -15
41 17 49 18 4 39 7 46 5 6 -1 12 5 12 14 0 8 5 15 11 15 5 0 7 5 4 10 -9 14
17 70 32 70 7 0 10 -12 8 -32z m-230 -188 c3 -5 1 -10 -4 -10 -6 0 -11 5 -11
10 0 6 2 10 4 10 3 0 8 -4 11 -10z"/>
<path d="M1920 1488 c-19 -5 -43 -17 -52 -25 -9 -8 -21 -12 -27 -9 -5 4 -17
-9 -27 -29 -9 -19 -20 -33 -24 -30 -4 3 -7 -6 -7 -19 0 -14 -10 -45 -22 -70
-15 -30 -22 -64 -22 -100 0 -63 -11 -112 -25 -109 -5 1 -14 21 -21 45 l-12 43
5 -42 c6 -48 3 -50 -56 -33 -22 6 -43 7 -55 1 -11 -5 -47 -16 -80 -26 -74 -21
-102 -43 -150 -119 -48 -76 -62 -166 -38 -241 8 -27 20 -56 26 -62 6 -9 5 -18
-3 -28 -17 -20 -35 -14 -35 11 0 10 -7 19 -15 20 -8 0 -27 5 -41 11 -14 6 -48
10 -75 8 -184 -13 -258 -47 -289 -133 -47 -133 -63 -258 -35 -286 6 -6 10 -15
10 -22 0 -7 15 -27 33 -46 17 -19 51 -56 74 -83 39 -45 46 -49 100 -55 53 -6
132 6 162 24 16 10 1 36 -20 36 -10 0 -19 5 -19 10 0 6 -7 10 -15 10 -16 0
-16 1 -20 38 -3 32 13 38 21 7 6 -24 24 -36 24 -15 0 6 11 10 25 10 14 0 37
11 51 25 28 28 49 33 40 10 -3 -8 2 -18 11 -23 9 -6 12 -12 5 -16 -11 -6 -5
-46 7 -46 25 0 99 129 86 150 -3 5 0 10 8 10 18 0 29 37 13 44 -8 3 -8 7 0 13
11 7 19 40 14 53 -1 3 -4 23 -6 44 -3 26 -17 53 -40 80 -20 23 -46 53 -59 68
-19 22 -21 29 -10 38 10 8 23 -1 56 -38 73 -80 103 -96 178 -96 85 0 131 22
131 63 0 26 4 29 40 33 37 3 40 2 40 -22 l1 -25 18 23 c11 12 24 22 29 22 16
0 69 110 77 160 16 92 4 149 -40 202 -14 16 -23 34 -19 39 3 5 1 9 -5 9 -5 0
-13 9 -16 21 -4 12 -12 18 -21 15 -7 -3 -18 4 -24 14 -6 11 -17 20 -25 20 -8
0 -15 4 -15 8 0 4 10 7 23 7 20 -1 174 -142 170 -155 -1 -3 14 -6 33 -7 l34
-3 0 290 0 290 -22 -1 c-13 0 -39 -5 -58 -11z m-200 -768 c0 -5 -5 -10 -11
-10 -5 0 -7 5 -4 10 3 6 8 10 11 10 2 0 4 -4 4 -10z m80 3 c0 -5 -7 -17 -15
-27 -14 -19 -15 -19 -15 7 0 17 5 27 15 27 8 0 15 -3 15 -7z m-80 -45 c-11
-10 -27 -18 -37 -18 -14 0 -15 2 -4 9 7 5 11 13 8 18 -4 6 6 10 22 9 28 -1 29
-2 11 -18z m35 -68 c-3 -5 -13 -10 -21 -10 -8 0 -12 5 -9 10 3 6 13 10 21 10
8 0 12 -4 9 -10z m-605 -270 c0 -5 -4 -10 -10 -10 -5 0 -10 5 -10 10 0 6 5 10
10 10 6 0 10 -4 10 -10z m180 -20 c0 -16 -41 -32 -66 -26 -13 4 -24 12 -24 18
0 9 3 9 12 0 16 -16 43 -15 58 3 14 17 20 19 20 5z m-195 -40 c3 -5 1 -10 -4
-10 -6 0 -11 5 -11 10 0 6 2 10 4 10 3 0 8 -4 11 -10z"/>
<path d="M910 1278 c-128 -36 -140 -41 -157 -67 -22 -33 -37 -73 -54 -150 -7
-34 -16 -61 -19 -61 -11 0 -6 -66 7 -81 6 -8 15 -27 19 -44 10 -39 115 -140
168 -160 51 -20 102 -15 100 9 -1 9 2 16 7 16 5 0 9 -9 9 -21 0 -17 4 -19 23
-13 12 4 38 8 57 9 38 2 90 23 90 37 0 4 6 8 13 8 42 1 91 97 108 214 11 73
10 79 -12 123 -38 75 -107 151 -163 180 -43 23 -119 23 -196 1z m310 -374 c0
-15 -22 -44 -31 -39 -11 7 7 45 21 45 6 0 10 -3 10 -6z m-160 -58 c0 -3 -4 -8
-10 -11 -5 -3 -10 -1 -10 4 0 6 5 11 10 11 6 0 10 -2 10 -4z m84 -21 c-4 -8
-10 -15 -15 -15 -5 0 -9 7 -9 15 0 8 7 15 15 15 9 0 12 -6 9 -15z m-134 -45
c0 -5 -4 -10 -10 -10 -5 0 -10 5 -10 10 0 6 5 10 10 10 6 0 10 -4 10 -10z m45
-11 c-4 -5 -13 -9 -22 -9 -13 0 -13 3 -3 15 13 15 35 11 25 -6z m49 -2 c-7
-19 -31 -30 -39 -17 -3 5 4 11 15 15 11 3 20 11 20 17 0 6 2 9 5 6 3 -3 3 -12
-1 -21z"/>
<path d="M0 783 c1 -159 5 -294 8 -301 5 -7 13 -8 22 -2 12 8 12 10 -3 16 -9
3 -17 16 -17 28 0 12 3 16 8 10 11 -17 67 -22 80 -7 17 17 16 20 -18 36 -21
11 -30 12 -34 3 -2 -6 -3 3 -2 19 3 30 15 66 26 75 3 3 14 18 23 33 11 17 24
26 33 23 9 -3 14 1 14 14 0 11 5 20 10 20 16 0 24 -29 12 -43 -6 -7 -10 -28
-8 -47 1 -21 -6 -45 -16 -59 -21 -28 -23 -45 -5 -59 35 -30 105 89 114 195 5
60 2 76 -20 123 -14 30 -37 69 -51 85 -14 17 -33 40 -43 52 -10 13 -31 27 -48
33 -24 9 -27 13 -15 20 12 8 12 10 -5 10 -11 0 -30 3 -43 6 l-22 6 0 -289z
m90 -63 c-6 -11 -15 -20 -20 -20 -14 0 -12 6 6 24 21 22 27 20 14 -4z"/>
<path d="M1360 1050 c0 -5 5 -10 10 -10 6 0 10 5 10 10 0 6 -4 10 -10 10 -5 0
-10 -4 -10 -10z"/>
<path d="M1973 883 c-15 -5 -18 -43 -4 -43 5 0 11 10 14 22 7 26 6 27 -10 21z"/>
<path d="M447 846 c-32 -8 -64 -19 -70 -25 -6 -6 -20 -11 -31 -11 -10 0 -16
-3 -13 -7 4 -3 -1 -16 -12 -27 -10 -12 -33 -61 -50 -109 -31 -89 -40 -160 -21
-172 6 -3 10 -20 10 -36 0 -17 5 -40 11 -52 25 -47 100 -125 136 -141 21 -9
45 -21 54 -26 44 -24 294 68 273 101 -2 4 4 10 15 14 11 3 34 31 51 62 30 53
32 62 27 127 -8 115 -29 166 -94 230 -77 76 -167 99 -286 72z m220 -407 c6 -6
9 -19 6 -28 -4 -13 -2 -12 11 3 8 10 20 15 25 11 15 -8 5 -24 -23 -36 -19 -8
-18 -9 7 -6 29 5 35 -4 13 -22 -8 -6 -31 -9 -55 -6 -33 4 -43 2 -49 -12 -5
-14 -8 -9 -12 17 -7 42 -2 60 15 60 7 0 18 7 25 15 15 18 22 19 37 4z m-122
-69 c-3 -5 1 -10 9 -10 9 0 15 -3 15 -7 -5 -28 3 -35 30 -30 16 3 34 1 41 -6
10 -9 12 -9 8 3 -4 11 1 16 13 17 16 2 17 -1 8 -19 -9 -16 -18 -19 -50 -16
-21 2 -39 0 -39 -4 0 -5 -5 -8 -11 -8 -5 0 -8 4 -5 9 3 5 -5 12 -19 15 -29 7
-33 22 -7 29 14 4 14 6 -5 12 -24 8 -22 25 3 25 8 0 12 -4 9 -10z"/>
<path d="M616 393 c-11 -11 -6 -23 9 -23 8 0 15 4 15 9 0 13 -16 22 -24 14z"/>
<path d="M1977 832 c-11 -2 -16 -9 -13 -18 3 -8 -1 -14 -10 -14 -8 0 -13 -4
-10 -9 6 -9 -36 -157 -57 -199 -6 -13 -21 -33 -32 -45 -23 -23 -40 -56 -36
-71 1 -4 -11 -5 -26 0 -40 11 -69 8 -143 -13 -86 -26 -118 -42 -125 -65 -4
-10 -10 -18 -15 -18 -12 0 -30 -35 -36 -68 -3 -15 -12 -40 -19 -57 -8 -16 -16
-52 -17 -78 -1 -41 -5 -50 -24 -57 -30 -12 -21 -46 18 -66 43 -22 28 -28 -29
-12 -70 21 -262 -1 -297 -33 -6 -5 77 -9 188 -9 177 0 197 2 186 15 -11 13
-10 14 4 9 9 -3 16 -10 16 -15 0 -15 197 -11 204 4 5 9 7 9 12 0 7 -15 34 -17
34 -3 0 6 -5 10 -11 10 -8 0 -8 5 1 15 14 17 35 21 25 5 -3 -5 -1 -10 4 -10 6
0 11 -7 11 -15 0 -10 11 -15 35 -15 19 0 35 5 35 10 0 6 7 10 15 10 8 0 15 -4
15 -10 0 -6 27 -10 60 -10 l60 0 0 185 c0 117 -4 185 -10 185 -5 0 -10 7 -10
15 0 8 -7 15 -15 15 -8 0 -15 9 -15 20 0 11 -7 20 -15 20 -8 0 -15 5 -15 11 0
5 -3 8 -8 5 -4 -2 -18 2 -32 10 l-25 13 24 1 c17 0 22 4 17 17 -4 9 17 -8 46
-38 l53 -54 3 113 c1 62 1 159 0 215 -3 93 -5 102 -21 99z m-224 -389 c-7 -2
-19 -2 -25 0 -7 3 -2 5 12 5 14 0 19 -2 13 -5z m172 -393 c3 -5 1 -10 -4 -10
-6 0 -11 5 -11 10 0 6 2 10 4 10 3 0 8 -4 11 -10z"/>
<path d="M1220 735 c-8 -9 -9 -19 -4 -25 12 -11 34 14 25 29 -6 9 -11 8 -21
-4z"/>
<path d="M90 620 c-13 -8 -12 -10 3 -10 9 0 17 5 17 10 0 12 -1 12 -20 0z"/>
<path d="M23 433 c-23 -4 -23 -4 -23 -219 l0 -214 96 4 c53 2 101 9 107 15 8
8 6 11 -8 11 -14 0 -16 3 -8 11 6 6 9 17 7 24 -3 7 7 20 21 29 23 15 26 15 32
1 3 -9 1 -21 -5 -27 -14 -14 -4 -38 17 -37 9 0 11 3 5 5 -13 6 -6 56 10 66 7
5 4 8 -6 8 -10 0 -18 5 -18 10 0 17 52 11 66 -7 17 -23 18 -34 2 -28 -9 4 -13
-8 -13 -40 0 -35 4 -45 17 -45 20 0 37 46 44 120 7 71 -26 146 -98 226 -78 85
-141 107 -245 87z"/>
<path d="M625 224 c-87 -17 -121 -31 -151 -61 -13 -13 -27 -23 -33 -23 -5 0
-18 -24 -29 -52 -11 -29 -23 -61 -27 -71 -7 -16 11 -17 290 -17 l296 0 -6 23
c-24 80 -121 189 -184 207 -45 12 -69 12 -156 -6z"/>
</g>
</svg>
