<?xml version="1.0" encoding="UTF-8" standalone="no"?>
<svg
   xmlns:dc="http://purl.org/dc/elements/1.1/"
   xmlns:cc="http://creativecommons.org/ns#"
   xmlns:rdf="http://www.w3.org/1999/02/22-rdf-syntax-ns#"
   xmlns:svg="http://www.w3.org/2000/svg"
   xmlns="http://www.w3.org/2000/svg"
   xmlns:sodipodi="http://sodipodi.sourceforge.net/DTD/sodipodi-0.dtd"
   xmlns:inkscape="http://www.inkscape.org/namespaces/inkscape"
   version="1.1"
   id="svg2"
   xml:space="preserve"
   width="338.66666"
   height="152.66667"
   viewBox="0 0 338.66666 152.66667"
   sodipodi:docname="PS_logo_F-07.eps"><metadata
     id="metadata8"><rdf:RDF><cc:Work
         rdf:about=""><dc:format>image/svg+xml</dc:format><dc:type
           rdf:resource="http://purl.org/dc/dcmitype/StillImage" /></cc:Work></rdf:RDF></metadata><defs
     id="defs6"><clipPath
       clipPathUnits="userSpaceOnUse"
       id="clipPath42"><path
         d="m 1631.74,770.957 c 0,-200.426 -162.48,-362.902 -362.91,-362.902 -200.42,0 -362.9,162.476 -362.9,362.902 0,200.426 162.48,362.903 362.9,362.903 200.43,0 362.91,-162.477 362.91,-362.903 z"
         id="path40" /></clipPath><linearGradient
       x1="0"
       y1="0"
       x2="1"
       y2="0"
       gradientUnits="userSpaceOnUse"
       gradientTransform="matrix(0,-717.569,-717.569,0,1268.83,1122.41)"
       spreadMethod="pad"
       id="linearGradient48"><stop
         style="stop-opacity:1;stop-color:#f14624"
         offset="0"
         id="stop44" /><stop
         style="stop-opacity:1;stop-color:#ea038c"
         offset="1"
         id="stop46" /></linearGradient></defs><sodipodi:namedview
     pagecolor="#ffffff"
     bordercolor="#666666"
     borderopacity="1"
     objecttolerance="10"
     gridtolerance="10"
     guidetolerance="10"
     inkscape:pageopacity="0"
     inkscape:pageshadow="2"
     inkscape:window-width="640"
     inkscape:window-height="480"
     id="namedview4" /><g
     id="g10"
     inkscape:groupmode="layer"
     inkscape:label="ink_ext_XXXXXX"
     transform="matrix(1.3333333,0,0,-1.3333333,0,152.66667)"><g
       id="g12"
       transform="scale(0.1)"><path
         d="M 8.83203,211.387 H 86.3789 c 45.7851,0 74.7341,-26.121 74.7341,-65.746 v -0.563 c 0,-44.098 -35.406,-67.1483 -78.6716,-67.1483 H 43.3789 V 14.7109 H 8.83203 Z M 83.5664,109.129 c 26.1216,0 42.4376,14.601 42.4376,35.101 v 0.579 c 0,23.011 -16.582,35.113 -42.4376,35.113 H 43.3789 v -70.793 h 40.1875"
         style="fill:#211c1d;fill-opacity:1;fill-rule:nonzero;stroke:none"
         id="path14" /><path
         d="M 246.918,211.387 H 281.48 V 46.1797 H 384.879 V 14.7109 H 246.918 V 211.387"
         style="fill:#211c1d;fill-opacity:1;fill-rule:nonzero;stroke:none"
         id="path16" /><path
         d="M 462.527,98.1484 V 211.383 H 497.09 V 99.5703 c 0,-36.5312 18.836,-56.1914 49.723,-56.1914 30.636,0 49.457,18.543 49.457,54.7695 V 211.383 h 34.558 V 99.8516 c 0,-58.7227 -33.152,-88.2305 -84.562,-88.2305 -51.149,0 -83.739,29.5078 -83.739,86.5273"
         style="fill:#211c1d;fill-opacity:1;fill-rule:nonzero;stroke:none"
         id="path18" /><path
         d="m 728.727,211.387 h 87.66 c 24.726,0 44.109,-7.317 56.758,-19.664 10.378,-10.676 16.285,-25.293 16.285,-42.422 v -0.578 c 0,-32.293 -19.399,-51.6917 -46.907,-59.5511 l 53.082,-74.461 H 854.887 L 806.555,83.2695 H 763.27 V 14.7109 h -34.543 z m 85.113,-97.508 c 24.726,0 40.469,12.941 40.469,32.887 v 0.562 c 0,21.074 -15.164,32.594 -40.735,32.594 H 763.27 v -66.043 h 50.57"
         style="fill:#211c1d;fill-opacity:1;fill-rule:nonzero;stroke:none"
         id="path20" /><path
         d="m 1051.93,212.781 h 32.03 l 86.53,-198.0622 h -36.53 l -19.94,47.4726 h -92.99 L 1000.8,14.7188 h -35.402 z m 49.44,-119.9529 -33.98,78.6679 -33.72,-78.6679 z"
         style="fill:#211c1d;fill-opacity:1;fill-rule:nonzero;stroke:none"
         id="path22" /><path
         d="m 1254.6,211.387 h 34.55 V 46.1797 h 103.4 V 14.7109 H 1254.6 V 211.387"
         style="fill:#211c1d;fill-opacity:1;fill-rule:nonzero;stroke:none"
         id="path24" /><path
         d="m 1465.73,43.3711 20.78,24.7305 c 18.83,-16.3008 37.67,-25.5508 62.1,-25.5508 21.35,0 34.84,9.8086 34.84,24.7109 v 0.5469 c 0,14.0625 -7.88,21.6406 -44.39,30.0703 -41.86,10.1091 -65.47,22.4801 -65.47,58.7111 v 0.578 c 0,33.719 28.11,57.023 67.16,57.023 28.65,0 51.39,-8.707 71.35,-24.726 l -18.54,-26.137 c -17.69,13.223 -35.4,20.227 -53.38,20.227 -20.24,0 -32.03,-10.379 -32.03,-23.305 v -0.562 c 0,-15.168 8.99,-21.918 46.63,-30.907 41.58,-10.109 63.21,-25.011 63.21,-57.6013 v -0.5508 c 0,-36.8086 -28.93,-58.7187 -70.23,-58.7187 -30.05,0 -58.43,10.3906 -82.03,31.4609"
         style="fill:#211c1d;fill-opacity:1;fill-rule:nonzero;stroke:none"
         id="path26" /><path
         d="m 1711.15,211.391 h 34.55 V 14.7188 h -34.55 V 211.391"
         style="fill:#211c1d;fill-opacity:1;fill-rule:nonzero;stroke:none"
         id="path28" /><path
         d="m 1840,112.488 v 0.563 c 0,55.07 42.16,101.699 101.43,101.699 34.28,0 55.36,-9.551 75.59,-26.699 l -21.93,-26.121 c -15.16,12.929 -30.06,21.086 -55.07,21.086 -36.23,0 -63.77,-31.762 -63.77,-69.407 v -0.558 c 0,-40.4494 26.68,-70.2424 66.87,-70.2424 18.54,0 35.4,5.8906 47.47,14.8906 V 94.5117 H 1940.3 V 124.57 h 83.74 V 41.9609 c -19.38,-16.5703 -47.21,-30.6015 -82.05,-30.6015 -61.54,0 -101.99,43.8125 -101.99,101.1286"
         style="fill:#211c1d;fill-opacity:1;fill-rule:nonzero;stroke:none"
         id="path30" /><path
         d="m 2119.38,211.387 h 34.56 v -81.766 h 93.83 v 81.766 h 34.56 V 14.7109 h -34.56 v 82.8985 h -93.83 V 14.7109 h -34.56 V 211.387"
         style="fill:#211c1d;fill-opacity:1;fill-rule:nonzero;stroke:none"
         id="path32" /><path
         d="m 2369.24,211.387 v -32.028 h 62.38 V 14.7109 h 34.83 V 179.359 h 62.38 v 32.028 h -159.59"
         style="fill:#211c1d;fill-opacity:1;fill-rule:nonzero;stroke:none"
         id="path34" /><g
         id="g36"><g
           id="g38"
           clip-path="url(#clipPath42)"><path
             d="m 1631.74,770.957 c 0,-200.426 -162.48,-362.902 -362.91,-362.902 -200.42,0 -362.9,162.476 -362.9,362.902 0,200.426 162.48,362.903 362.9,362.903 200.43,0 362.91,-162.477 362.91,-362.903"
             style="fill:url(#linearGradient48);fill-opacity:1;fill-rule:nonzero;stroke:none"
             id="path50" /></g></g><path
         d="M 1175.54,959.535 V 582.383 l 326.62,188.574 -326.62,188.578 z m 31.26,-54.148 232.83,-134.43 -232.83,-134.426 v 268.856"
         style="fill:#ffffff;fill-opacity:1;fill-rule:nonzero;stroke:none"
         id="path52" /><path
         d="M 1100.45,918.363 V 623.555 l 255.3,147.41 -255.3,147.398 z m 31.26,-54.148 161.52,-93.25 -161.52,-93.262 v 186.512"
         style="fill:#ffffff;fill-opacity:1;fill-rule:nonzero;stroke:none"
         id="path54" /></g></g></svg>
